<?xml version="1.0" encoding="UTF-8" standalone="no"?>
<!-- Created with Inkscape (http://www.inkscape.org/) -->

<svg
   xmlns:dc="http://purl.org/dc/elements/1.1/"
   xmlns:cc="http://creativecommons.org/ns#"
   xmlns:rdf="http://www.w3.org/1999/02/22-rdf-syntax-ns#"
   xmlns:svg="http://www.w3.org/2000/svg"
   xmlns="http://www.w3.org/2000/svg"
   xmlns:sodipodi="http://sodipodi.sourceforge.net/DTD/sodipodi-0.dtd"
   xmlns:inkscape="http://www.inkscape.org/namespaces/inkscape"
   width="14.286723mm"
   height="21.447762mm"
   viewBox="0 0 14.286723 21.447762"
   version="1.1"
   id="svg4236"
   inkscape:version="0.92.2 (5c3e80d, 2017-08-06)"
   sodipodi:docname="logo.svg">
  <defs
     id="defs4230" />
  <sodipodi:namedview
     id="base"
     pagecolor="#ffffff"
     bordercolor="#666666"
     borderopacity="1.0"
     inkscape:pageopacity="0.0"
     inkscape:pageshadow="2"
     inkscape:zoom="0.98994949"
     inkscape:cx="-311.56393"
     inkscape:cy="-83.902831"
     inkscape:document-units="mm"
     inkscape:current-layer="layer1"
     showgrid="false"
     fit-margin-top="0"
     fit-margin-left="0"
     fit-margin-right="0"
     fit-margin-bottom="0"
     inkscape:window-width="1918"
     inkscape:window-height="1059"
     inkscape:window-x="0"
     inkscape:window-y="19"
     inkscape:window-maximized="1" />
  <metadata
     id="metadata4233">
    <rdf:RDF>
      <cc:Work
         rdf:about="">
        <dc:format>image/svg+xml</dc:format>
        <dc:type
           rdf:resource="http://purl.org/dc/dcmitype/StillImage" />
        <dc:title></dc:title>
      </cc:Work>
    </rdf:RDF>
  </metadata>
  <g
     inkscape:label="Layer 1"
     inkscape:groupmode="layer"
     id="layer1"
     transform="translate(-23.094733,-15.645167)">
    <g
       id="g4142"
       transform="matrix(0.35277777,0,0,-0.35277777,27.699366,26.379067)">
      <path
         d="M 0,0 V 26.868 L -3.92,24.929 V 0 Z"
         style="fill:#435060;fill-opacity:1;fill-rule:nonzero;stroke:none"
         id="path4144"
         inkscape:connector-curvature="0" />
    </g>
    <g
       id="g4146"
       transform="matrix(0.35277777,0,0,-0.35277777,26.316336,26.379067)">
      <path
         d="M 0,0 V -24.871 L 3.92,-26.81 V 0 Z"
         style="fill:#f3b927;fill-opacity:1;fill-rule:nonzero;stroke:none"
         id="path4148"
         inkscape:connector-curvature="0" />
    </g>
    <g
       id="g4150"
       transform="matrix(0.35277777,0,0,-0.35277777,30.238202,15.645167)">
      <path
         d="M 0,0 -1.96,-0.969 V -30.427 H 1.96 V -0.969 Z"
         style="fill:#435060;fill-opacity:1;fill-rule:nonzero;stroke:none"
         id="path4152"
         inkscape:connector-curvature="0" />
    </g>
    <g
       id="g4154"
       transform="matrix(0.35277777,0,0,-0.35277777,29.546616,26.379067)">
      <path
         d="m 0,0 v -29.399 l 1.96,-0.971 1.96,0.971 V 0 Z"
         style="fill:#f3b927;fill-opacity:1;fill-rule:nonzero;stroke:none"
         id="path4156"
         inkscape:connector-curvature="0" />
    </g>
    <g
       id="g4158"
       transform="matrix(0.35277777,0,0,-0.35277777,34.155445,26.379067)">
      <path
         d="m 0,0 v 24.936 l -3.92,1.938 V 0 Z"
         style="fill:#435060;fill-opacity:1;fill-rule:nonzero;stroke:none"
         id="path4160"
         inkscape:connector-curvature="0" />
    </g>
    <g
       id="g4162"
       transform="matrix(0.35277777,0,0,-0.35277777,32.772593,26.379067)">
      <path
         d="m 0,0 v -26.816 l 3.92,1.939 V 0 Z"
         style="fill:#f3b927;fill-opacity:1;fill-rule:nonzero;stroke:none"
         id="path4164"
         inkscape:connector-curvature="0" />
    </g>
    <g
       id="g4166"
       transform="matrix(0.35277777,0,0,-0.35277777,37.381457,26.379067)">
      <path
         d="m 0,0 v 20.385 l -0.424,0.239 -3.496,1.729 V 0 Z"
         style="fill:#435060;fill-opacity:1;fill-rule:nonzero;stroke:none"
         id="path4168"
         inkscape:connector-curvature="0" />
    </g>
    <g
       id="g4170"
       transform="matrix(0.35277777,0,0,-0.35277777,35.99825,26.379067)">
      <path
         d="m 0,0 v -22.294 l 3.92,1.939 V 0 Z"
         style="fill:#f3b927;fill-opacity:1;fill-rule:nonzero;stroke:none"
         id="path4172"
         inkscape:connector-curvature="0" />
    </g>
    <g
       id="g4174"
       transform="matrix(0.35277777,0,0,-0.35277777,23.244664,19.103695)">
      <path
         d="M 0,0 -0.425,-0.238 V -20.624 H 3.496 V 1.729 Z"
         style="fill:#435060;fill-opacity:1;fill-rule:nonzero;stroke:none"
         id="path4176"
         inkscape:connector-curvature="0" />
    </g>
    <g
       id="g4178"
       transform="matrix(0.35277777,0,0,-0.35277777,23.094804,26.379241)">
      <path
         d="m 0,0 v -20.355 l 3.921,-1.939 V 0 Z"
         style="fill:#f3b927;fill-opacity:1;fill-rule:nonzero;stroke:none"
         id="path4180"
         inkscape:connector-curvature="0" />
    </g>
  </g>
</svg>
